<svg width="1165" height="1054" viewBox="0 0 1165 1054" fill="none" xmlns="http://www.w3.org/2000/svg">
<g clip-path="url(#clip0_4_27)">
<path d="M917.196 1051.47C917.197 1051.8 917.132 1052.13 917.005 1052.44C916.878 1052.75 916.692 1053.03 916.456 1053.26C916.221 1053.5 915.941 1053.68 915.634 1053.81C915.326 1053.94 914.996 1054 914.664 1054L233.133 1054C232.462 1054 231.818 1053.73 231.343 1053.26C230.868 1052.78 230.601 1052.14 230.601 1051.47C230.601 1050.8 230.868 1050.15 231.343 1049.68C231.818 1049.2 232.462 1048.94 233.133 1048.94L914.664 1048.94C914.996 1048.94 915.326 1049 915.634 1049.13C915.941 1049.25 916.221 1049.44 916.456 1049.68C916.692 1049.91 916.878 1050.19 917.005 1050.5C917.132 1050.81 917.197 1051.14 917.196 1051.47V1051.47Z" fill="#CCCCCC"/>
<path d="M831 217C831 244.2 824.6 265.8 798.2 265.8H367.8C340.6 265.8 335 244.2 335 217V93.8C335 66.6 356.6 45 383.8 45H782.2C809.4 45 831 66.6 831 93.8V217Z" fill="#B3DCE0"/>
<path d="M335 93.8C335 66.6 356.6 45 383.8 45H782.2C809.4 45 831 66.6 831 93.8" fill="#C1E3E5"/>
<path d="M799.8 216.2C799.8 221.8 795.8 225.8 790.2 225.8H375.8C370.2 225.8 366.2 221.8 366.2 216.2C366.2 210.6 370.2 206.6 375.8 206.6H790.2C795.8 206.6 799.8 210.6 799.8 216.2Z" fill="#9ECACC"/>
<path d="M366.2 216.2C366.2 210.6 370.2 206.6 375.8 206.6H790.2C795.8 206.6 799.8 210.6 799.8 216.2" fill="#7EAAAA"/>
<path d="M799.8 243.4C799.8 249 795.8 253 790.2 253H375.8C370.2 253 366.2 249 366.2 243.4C366.2 237.8 370.2 233.8 375.8 233.8H790.2C795.8 233.8 799.8 237.8 799.8 243.4Z" fill="#9ECACC"/>
<path d="M366.2 243.4C366.2 237.8 370.2 233.8 375.8 233.8H790.2C795.8 233.8 799.8 237.8 799.8 243.4" fill="#7EAAAA"/>
<path d="M480.6 174.6C480.6 177 478.2 179.4 475.8 179.4H374.2C371.8 179.4 369.4 177 369.4 174.6V141C369.4 138.6 371.8 136.2 374.2 136.2H476.6C479 136.2 481.4 138.6 481.4 141V174.6H480.6Z" fill="#46BC5C"/>
<path d="M475.8 137C478.2 137 480.6 139.4 480.6 141.8V175.4C480.6 177.8 478.2 180.2 475.8 180.2H374.2C371.8 180.2 369.4 177.8 369.4 175.4" fill="#2FA53F"/>
<path d="M709.105 986.109L710.258 960.195C722.276 953.773 735.68 950.381 749.307 950.313C730.553 965.642 732.896 995.19 720.181 1015.8C716.166 1022.2 710.762 1027.62 704.37 1031.64C697.978 1035.67 690.761 1038.21 683.254 1039.07L667.56 1048.67C665.406 1036.67 665.881 1024.35 668.951 1012.54C672.022 1000.74 677.615 989.748 685.345 980.316C689.734 975.068 694.767 970.393 700.325 966.402C704.084 976.31 709.105 986.109 709.105 986.109Z" fill="#659e57"/>
<path id="right-hand" d="M644.063 261.381C642.98 263.323 642.335 265.479 642.175 267.698C642.015 269.916 642.343 272.143 643.137 274.221C643.931 276.298 645.171 278.177 646.769 279.724C648.368 281.271 650.286 282.449 652.389 283.174L652.481 337.24L675.916 321.733L672.236 272.769C673.221 269.156 672.846 265.307 671.183 261.952C669.519 258.597 666.682 255.969 663.209 254.565C659.737 253.161 655.87 253.08 652.341 254.336C648.812 255.592 645.867 258.099 644.063 261.381V261.381Z" fill="#C47983"/>
<path d="M481.683 1013.88L498.752 1021.16L534.931 958.799L509.738 948.067L481.683 1013.88Z" fill="#C47983"/>
<path d="M622.733 1030.03L641.285 1030.03L650.113 958.486L622.73 958.488L622.733 1030.03Z" fill="#C47983"/>
<path d="M622.08 1049.38L679.135 1049.38L679.135 1048.66C679.134 1042.77 676.794 1037.12 672.63 1032.96C668.465 1028.8 662.817 1026.46 656.927 1026.46L656.926 1026.46L646.504 1018.55L627.059 1026.46L622.079 1026.46L622.08 1049.38Z" fill="#2F2E41"/>
<path d="M471.303 1026.27L523.791 1048.63L524.074 1047.97C526.383 1042.55 526.445 1036.44 524.247 1030.98C522.048 1025.52 517.769 1021.15 512.352 1018.84L512.35 1018.84L505.863 1007.48L484.874 1007.14L480.293 1005.18L471.303 1026.27Z" fill="#2F2E41"/>
<path d="M640.933 606.605L669.131 778.255L661.457 803.834L671.526 821.95L656.739 981.048L662.741 994.259L645.97 1004.6L611.842 1004.6L610.031 860.568L601.601 839.421L601.601 827.766L584.44 739.939L582.609 849.009L577.131 859.574L528.049 988.022L489.781 988.022L492.74 965.228C485.884 961.757 503.034 951.615 504.682 944.11L499.047 931.436L504.682 907.494L517.661 840.911L504.4 761.964L509.15 711.149L506.677 693.766L506.864 688.145C506.864 688.145 513.406 685.622 507.159 679.324C498.511 630.313 509.15 619.677 509.15 619.677L551.731 594.763L640.933 606.605Z" fill="#2F2E41"/>
<path d="M523.778 267.724C523.96 269.941 523.654 272.171 522.881 274.257C522.109 276.342 520.888 278.233 519.305 279.796C517.722 281.359 515.815 282.556 513.719 283.303C511.624 284.049 509.39 284.327 507.175 284.118L484.705 333.296L469.793 309.482L493.417 266.432C494.016 262.736 495.951 259.388 498.855 257.022C501.758 254.656 505.429 253.438 509.172 253.597C512.914 253.756 516.468 255.282 519.16 257.886C521.852 260.49 523.495 263.99 523.778 267.724V267.724Z" fill="#C47983"/>
<path d="M572.263 380.551C593.622 380.551 610.936 363.241 610.936 341.889C610.936 320.537 593.622 303.227 572.263 303.227C550.905 303.227 533.591 320.537 533.591 341.889C533.591 363.241 550.905 380.551 572.263 380.551Z" fill="#C47983"/>
<path d="M489.976 429.744L522.212 414.35C522.544 414.191 522.851 413.983 523.121 413.733L545.623 392.867C546.291 392.248 547.167 391.9 548.078 391.893L588.517 391.591C589.081 391.587 589.638 391.713 590.145 391.96C590.651 392.207 591.094 392.568 591.438 393.015L603.745 409.01C604.184 409.581 604.782 410.009 605.464 410.241L639.004 421.63C639.755 421.885 640.402 422.378 640.848 423.033C641.294 423.688 641.514 424.47 641.476 425.262L635.451 549.876C635.424 550.429 635.524 550.981 635.742 551.49L638.623 558.21C638.917 558.895 638.995 559.654 638.845 560.384C638.694 561.114 638.323 561.78 637.782 562.292C636.927 563.101 635.967 564.035 635.347 564.721C634.1 566.099 636.76 576.893 637.157 578.467C637.19 578.599 637.216 578.733 637.234 578.868L638.722 590.028C638.81 590.685 638.717 591.353 638.453 591.961C638.189 592.569 637.765 593.094 637.226 593.48V593.48C636.815 593.773 636.47 594.148 636.212 594.581C635.954 595.015 635.788 595.497 635.726 595.998C635.663 596.498 635.705 597.006 635.849 597.49C635.993 597.973 636.236 598.421 636.562 598.806L639.824 602.659C640.276 603.192 640.564 603.843 640.657 604.535L641.438 610.395C641.517 610.975 641.455 611.564 641.257 612.115C641.06 612.665 640.732 613.16 640.303 613.557C639.874 613.954 639.356 614.243 638.792 614.398C638.228 614.552 637.635 614.569 637.063 614.447C616.8 610.078 541.385 596.17 513.723 624.35C513.2 624.893 512.523 625.26 511.783 625.403C511.043 625.545 510.277 625.455 509.59 625.145C508.904 624.835 508.33 624.321 507.947 623.672C507.565 623.023 507.393 622.272 507.454 621.521C507.655 618.479 508.039 615.452 508.604 612.456L511.305 595.363C511.367 594.966 511.364 594.562 511.295 594.166L508.825 580.02C508.696 579.28 508.341 578.598 507.81 578.067L506.981 577.239C506.642 576.9 506.373 576.497 506.19 576.055C506.007 575.612 505.912 575.137 505.912 574.658C505.912 574.179 506.007 573.704 506.19 573.262C506.373 572.819 506.642 572.417 506.981 572.078L510.21 568.85C510.607 568.453 510.907 567.969 511.087 567.437C511.267 566.905 511.321 566.338 511.246 565.781L506.957 534.046C506.948 533.982 506.938 533.919 506.926 533.856L487.963 433.715C487.813 432.924 487.929 432.105 488.293 431.387C488.658 430.669 489.249 430.091 489.976 429.744Z" fill="#2C5AD0"/>
<path d="M562.37 378.658C562.205 378.294 562.04 377.929 561.876 377.563C561.939 377.565 562.002 377.574 562.065 377.576L562.37 378.658Z" fill="#2F2E41"/>
<path id="right-arm" d="M635.826 477.355L676.052 421.813L696.401 391.256L677.542 300.085L650.381 320.944L652.518 371.783L616.158 423.084L635.826 477.355Z" fill="#2C5AD0"/>
<path d="M605.933 307.101C605.354 303.889 604.06 300.849 602.147 298.205C601.183 297.059 599.989 296.13 598.641 295.478C597.294 294.826 595.824 294.465 594.327 294.42C592.831 294.375 591.342 294.645 589.957 295.214C588.572 295.783 587.324 296.638 586.292 297.723C586.897 295.966 587.072 294.089 586.805 292.25C583.981 293.604 580.959 294.503 577.854 294.912L584.716 287.749L550.556 290.886C547.03 291.21 543.218 291.669 540.629 294.346C538.04 297.024 537.896 302.739 541.168 304.232C534.72 301.804 527.316 305.328 523.062 311.232C518.808 317.135 517.241 324.923 516.954 332.477C516.581 342.273 518.407 352.702 524.388 359.915C528.3 364.631 533.633 367.572 537.961 371.815C538.004 371.857 538.048 371.9 538.091 371.943C542.831 376.804 548.774 380.324 555.316 382.145C561.857 383.967 568.765 384.026 575.336 382.315C576.074 382.112 576.807 381.887 577.544 381.677C581.225 383.342 585.81 381.066 588.134 377.365C590.612 373.419 591.101 368.369 591.206 363.559C591.343 357.268 590.955 350.977 590.047 344.751C589.022 337.74 588.099 328.761 593.653 325.24C597.978 322.498 603.351 325.203 607.704 327.888C608.122 320.91 607.525 313.908 605.933 307.101Z" fill="#2F2E41"/>
<path d="M523.468 486.079L497.7 484.221L452.977 429.481L419.78 381.91L427.426 362.573L473.212 284.802L497.21 304.021L474.3 379.251L519.715 424.653L523.468 486.079Z" fill="#2C5AD0"/>
</g>
<defs>
<clipPath id="clip0_4_27">
<rect width="1165" height="1054" fill="white"/>
</clipPath>
</defs>
</svg>
