<svg width="1618" height="1525" viewBox="0 0 1618 1525" fill="none" xmlns="http://www.w3.org/2000/svg">
<g clip-path="url(#clip0_1_3)">
<path d="M589.526 1034.78C393.493 1047.71 202.282 1006.33 15.8922 910.627C-170.497 814.926 -307.596 666.306 -395.405 464.766C-483.213 263.227 -504.398 66.2695 -458.961 -126.107C-413.524 -318.483 -314.129 -463.81 -160.777 -562.089C-7.42559 -660.368 166.513 -695.186 361.038 -666.543C555.563 -637.9 724.602 -541.262 868.156 -376.628C1011.71 -211.994 1101.23 -24.5726 1136.72 185.637C1172.21 395.847 1138.89 586.692 1036.76 758.171C934.638 929.651 785.559 1021.86 589.526 1034.78Z" fill="#54B2A9"/>
</g>
<defs>
<clipPath id="clip0_1_3">
<rect width="2029.89" height="1729" fill="white" transform="translate(496.687 -1123) rotate(56.4939)"/>
</clipPath>
</defs>
</svg>
